#N canvas 77 40 1118 629 12;
#X obj 20 630 sendOSC;
#X floatatom 20 657 5 0 0 0 - - -, f 5;
#X msg 20 -180 disconnect;
#X msg 80 -100 typetags 1;
#X msg 80 -70 typetags 0;
#X msg 100 483 [;
#X msg 100 510 ];
#X text 139 501 when last bundle is closed the buffer is sent.;
#X text 140 522 so: first "[" \, then add messages with send /bla;
#X text 143 540 open nested nudle etc \, close with "]";
#X floatatom 74 659 5 0 0 0 - - -, f 5;
#X text 123 662 bundleDepth;
#X text 139 480 open / close bundles here.;
#X text 142 561 watch the bundleDepth index change while you do this.
;
#X text 142 581 MAX_BUNDLE_NESTING: 32;
#X msg 20 -150 connect 169.254.220.152 10023;
#X obj 100 0 ctlin;
#X floatatom 100 138 5 0 0 0 - - -, f 5;
#X floatatom 140 138 5 0 0 0 - - -, f 5;
#X floatatom 100 230 5 0 0 0 - - -, f 5;
#X obj 100 170 / 127;
#X obj 100 260 int;
#X obj 110 320 pack f f;
#X obj 100 70 spigot;
#X obj 160 20 == 1;
#X obj 160 70 spigot;
#X obj 100 200 * 1024;
#X obj 620 -10 ctlin;
#X floatatom 620 128 5 0 0 0 - - -, f 5;
#X floatatom 660 128 5 0 0 0 - - -, f 5;
#X floatatom 620 220 5 0 0 0 - - -, f 5;
#X obj 620 160 / 127;
#X obj 620 250 int;
#X obj 630 310 pack f f;
#X obj 620 60 spigot;
#X obj 680 60 spigot;
#X obj 620 190 * 161;
#X obj 880 0 ctlin;
#X floatatom 880 138 5 0 0 0 - - -, f 5;
#X floatatom 920 138 5 0 0 0 - - -, f 5;
#X floatatom 880 230 5 0 0 0 - - -, f 5;
#X obj 880 170 / 127;
#X obj 880 260 int;
#X obj 890 320 pack f f;
#X obj 880 70 spigot;
#X obj 940 70 spigot;
#X obj 880 200 * 161;
#X text 100 -40 Levels:;
#X text 620 -40 Send A:;
#X text 880 -40 Send B:;
#X obj 680 10 == 4;
#X obj 940 20 == 3;
#X obj 310 -160 loadbang;
#X obj 510 -10 shell;
#X msg 531 -84 aconnect 'Launch Control XL':0 128:0;
#X obj 352 -18 ctlin;
#X floatatom 352 120 5 0 0 0 - - -, f 5;
#X floatatom 392 120 5 0 0 0 - - -, f 5;
#X floatatom 352 212 5 0 0 0 - - -, f 5;
#X obj 352 152 / 127;
#X obj 352 242 int;
#X obj 362 302 pack f f;
#X obj 352 52 spigot;
#X obj 412 52 spigot;
#X obj 412 2 == 2;
#X msg 581 -154 bang;
#X text 352 -48 Pan:;
#X msg 352 352 send /ch/0\$2/mix/pan \$1;
#X msg 100 360 send /ch/0\$2/mix/fader \$1;
#X msg 620 360 send /ch/0\$2/mix/09/level \$1;
#X msg 620 410 send /ch/0\$2/mix/10/level \$1;
#X msg 880 370 send /ch/0\$2/mix/11/level \$1;
#X msg 880 420 send /ch/0\$2/mix/12/level \$1;
#X obj 352 182 * 100;
#X connect 0 0 1 0;
#X connect 0 1 10 0;
#X connect 2 0 0 0;
#X connect 3 0 0 0;
#X connect 4 0 0 0;
#X connect 5 0 0 0;
#X connect 6 0 0 0;
#X connect 15 0 0 0;
#X connect 16 0 23 0;
#X connect 16 1 25 0;
#X connect 16 2 24 0;
#X connect 17 0 20 0;
#X connect 18 0 22 1;
#X connect 19 0 21 0;
#X connect 20 0 26 0;
#X connect 21 0 22 0;
#X connect 22 0 68 0;
#X connect 23 0 17 0;
#X connect 24 0 23 1;
#X connect 24 0 25 1;
#X connect 25 0 18 0;
#X connect 26 0 19 0;
#X connect 27 0 34 0;
#X connect 27 1 35 0;
#X connect 27 2 50 0;
#X connect 28 0 31 0;
#X connect 29 0 33 1;
#X connect 30 0 32 0;
#X connect 31 0 36 0;
#X connect 32 0 33 0;
#X connect 33 0 69 0;
#X connect 33 0 70 0;
#X connect 34 0 28 0;
#X connect 35 0 29 0;
#X connect 36 0 30 0;
#X connect 37 0 44 0;
#X connect 37 1 45 0;
#X connect 37 2 51 0;
#X connect 38 0 41 0;
#X connect 39 0 43 1;
#X connect 40 0 42 0;
#X connect 41 0 46 0;
#X connect 42 0 43 0;
#X connect 43 0 71 0;
#X connect 43 0 72 0;
#X connect 44 0 38 0;
#X connect 45 0 39 0;
#X connect 46 0 40 0;
#X connect 50 0 34 1;
#X connect 50 0 35 1;
#X connect 51 0 44 1;
#X connect 51 0 45 1;
#X connect 52 0 15 0;
#X connect 52 0 54 0;
#X connect 54 0 53 0;
#X connect 55 0 62 0;
#X connect 55 1 63 0;
#X connect 55 2 64 0;
#X connect 56 0 59 0;
#X connect 57 0 61 1;
#X connect 58 0 60 0;
#X connect 59 0 73 0;
#X connect 60 0 61 0;
#X connect 61 0 67 0;
#X connect 62 0 56 0;
#X connect 63 0 57 0;
#X connect 64 0 62 1;
#X connect 64 0 63 1;
#X connect 65 0 54 0;
#X connect 67 0 0 0;
#X connect 68 0 0 0;
#X connect 69 0 0 0;
#X connect 70 0 0 0;
#X connect 71 0 0 0;
#X connect 72 0 0 0;
#X connect 73 0 58 0;
